<svg xmlns="http://www.w3.org/2000/svg" viewBox="0 0 120 120" role="img" aria-labelledby="logoMarkTitle">
  <title id="logoMarkTitle">スマホレスキューかごしま ロゴマーク</title>
  <circle cx="60" cy="60" r="57" fill="#FFFBF3" stroke="#E2342B" stroke-width="5"/>

  <!-- mini helmet head -->
  <ellipse cx="52" cy="60" rx="21" ry="22" fill="#FDD7A8"/>
  <path d="M31 52C31 36 40 26 52 26C64 26 73 36 73 52V56C73 59 70 61 67 61H37C34 61 31 59 31 56Z" fill="#E2342B"/>
  <path d="M29 56C29 51 39 48 52 48C65 48 75 51 75 56C75 60 71 63 66 63H38C33 63 29 60 29 56Z" fill="#C21F1F"/>
  <g fill="#FFFBF3">
    <rect x="47" y="30" width="10" height="22" rx="3"/>
    <rect x="41" y="36" width="22" height="10" rx="3"/>
  </g>
  <path d="M42 70C46 78 58 78 62 70" fill="none" stroke="#8C2A1F" stroke-width="4" stroke-linecap="round"/>

  <!-- phone with signal waves -->
  <g transform="translate(70,64)">
    <rect x="0" y="0" width="20" height="32" rx="5" fill="#1B2A4A"/>
    <rect x="3" y="4" width="14" height="21" rx="1.5" fill="#FFFBF3"/>
    <circle cx="10" cy="28" r="1.6" fill="#FFFBF3"/>
    <path d="M22 6 C28 10 28 22 22 26" fill="none" stroke="#E2342B" stroke-width="3.4" stroke-linecap="round"/>
    <path d="M27 0 C36 7 36 25 27 32" fill="none" stroke="#E2342B" stroke-width="3.4" stroke-linecap="round" opacity="0.6"/>
  </g>
</svg>
